<svg version="1.1" id="Layer_1" xmlns="http://www.w3.org/2000/svg" xmlns:xlink="http://www.w3.org/1999/xlink" x="0px" y="0px"
	 width="100%" viewBox="0 0 2000 464" enable-background="new 0 0 2000 464" xml:space="preserve">
<path fill="#4C6971" opacity="1.000000" stroke="none" 
	d="
M1454.000000,465.000000 
	C969.333313,465.000000 485.166656,465.000000 1.000000,465.000000 
	C1.000000,310.333344 1.000000,155.666672 1.000000,1.000000 
	C667.666687,1.000000 1334.333374,1.000000 2001.000000,1.000000 
	C2001.000000,155.666672 2001.000000,310.333344 2001.000000,465.000000 
	C1818.833374,465.000000 1636.666626,465.000000 1454.000000,465.000000 
M314.978699,201.146896 
	C314.027130,197.492676 313.169189,193.811066 312.109161,190.188583 
	C303.524628,160.852005 286.800842,137.015442 263.265045,117.724411 
	C237.396896,96.521675 207.367828,86.275597 174.356094,85.275314 
	C162.288651,84.909660 149.914154,86.666176 138.047989,89.187630 
	C103.898811,96.444000 76.203857,114.733200 54.758438,141.997238 
	C37.695332,163.689941 27.584108,188.463196 24.856796,216.208008 
	C23.205000,233.011642 23.636623,249.582626 27.516371,265.998810 
	C34.418091,295.201752 48.805752,320.019165 70.879066,340.490997 
	C82.630272,351.389618 95.601387,360.172974 110.227921,366.690918 
	C136.695908,378.485657 164.094116,382.458710 192.862350,378.130646 
	C217.703690,374.393341 240.048187,365.179565 260.676514,350.279724 
	C273.073883,354.875305 285.516968,359.353180 297.839386,364.141693 
	C301.315002,365.492340 301.956451,363.341125 302.743561,361.173462 
	C308.562012,345.149597 314.270599,329.085754 320.102509,313.066803 
	C327.519165,292.694885 335.050049,272.364563 342.471863,251.994507 
	C346.704407,240.377747 350.817841,228.717575 355.177246,216.539749 
	C341.596436,211.609360 328.283508,206.776230 314.978699,201.146896 
M850.285156,108.001984 
	C844.894470,107.998268 839.503418,108.035164 834.113159,107.983467 
	C815.695251,107.806816 799.594055,114.301338 784.964600,125.021889 
	C782.133240,127.096710 779.394653,129.298157 776.474548,131.548126 
	C775.895935,129.029572 775.424255,127.117302 775.019226,125.191010 
	C772.468994,113.061630 762.661377,109.039154 751.832947,110.107323 
	C741.193054,111.156891 734.011902,119.322304 734.009155,129.770172 
	C733.991516,197.592941 733.875244,265.416107 734.090027,333.238190 
	C734.142029,349.668701 749.192749,356.714478 763.398499,351.733307 
	C772.858459,348.416199 775.925537,340.426880 775.949890,331.225311 
	C776.062256,288.732208 775.971130,246.238647 776.045715,203.745392 
	C776.053284,199.466492 776.236816,195.095154 777.105896,190.926682 
	C780.709900,173.640427 790.279419,160.706680 805.777344,152.012634 
	C816.893921,145.776459 828.935486,144.958481 840.996826,146.223679 
	C852.407959,147.420700 862.546631,152.775650 870.399048,161.164871 
	C881.359375,172.874420 884.857178,187.661957 884.929565,203.192383 
	C885.131409,246.518036 884.858215,289.845917 885.072327,333.171448 
	C885.153564,349.615173 900.446594,356.952087 914.792358,351.560883 
	C924.200623,348.025177 926.945862,339.954803 926.963989,330.790253 
	C927.047119,288.796967 926.971558,246.803360 927.045898,204.810028 
	C927.053467,200.530991 927.307739,196.183090 928.090454,191.987045 
	C931.045410,176.145264 939.146179,163.430573 952.357666,154.182236 
	C964.325378,145.804520 978.112183,144.641129 991.907898,146.323135 
	C1003.238586,147.704590 1013.423340,152.919617 1021.064331,161.718674 
	C1030.781738,172.908813 1034.842651,186.474045 1034.918213,201.014420 
	C1035.145020,244.673111 1034.988770,288.333710 1035.013550,331.993591 
	C1035.016602,337.408051 1036.348389,342.342255 1040.045410,346.607208 
	C1046.426758,353.968781 1056.993652,354.469360 1065.295898,351.731323 
	C1072.251831,349.437286 1076.990479,341.035309 1076.993530,332.030640 
	C1077.007690,290.203827 1077.007690,248.376999 1076.996094,206.550186 
	C1076.991577,190.411667 1074.952271,174.565201 1068.948486,159.499969 
	C1060.120850,137.348953 1044.766235,121.450073 1022.290771,113.021950 
	C1005.547180,106.743279 988.178772,106.492172 970.688721,108.993256 
	C951.152832,111.786896 934.305054,120.243645 919.923462,133.635254 
	C916.606873,136.723618 913.713745,140.266769 911.528015,142.626511 
	C904.388489,135.882614 897.891724,128.847382 890.484192,122.957558 
	C879.097656,113.903770 865.475952,109.910072 850.285156,108.001984 
M1406.165649,354.041290 
	C1414.339355,353.709839 1422.592041,353.986877 1430.672363,352.937012 
	C1458.993042,349.257294 1481.707520,335.483826 1499.916260,313.684143 
	C1517.252808,292.928436 1526.050049,268.758698 1527.831787,242.183289 
	C1529.514282,217.092438 1525.664551,192.882385 1513.229004,170.385651 
	C1500.991211,148.246582 1483.586060,131.488922 1461.213135,120.311646 
	C1435.202026,107.316666 1407.305908,104.899788 1379.063843,110.291359 
	C1352.183838,115.422874 1329.605835,128.586334 1311.634766,149.704498 
	C1292.161621,172.587738 1282.487793,199.243774 1282.208252,228.728241 
	C1281.556152,297.524567 1281.976929,366.331329 1282.071411,435.133698 
	C1282.075684,438.186981 1282.704590,441.409912 1283.804199,444.259949 
	C1287.417358,453.625153 1297.833618,458.304993 1309.066895,455.834076 
	C1318.509521,453.757050 1323.913330,445.534821 1323.943237,436.714783 
	C1324.074585,397.899261 1324.000366,359.083099 1324.000732,320.267151 
	C1324.000854,318.504303 1324.000854,316.741455 1324.000854,313.789093 
	C1346.364624,338.476990 1372.376465,353.323181 1406.165649,354.041290 
M1582.953857,244.733658 
	C1584.656982,254.107178 1585.517700,263.731171 1588.216675,272.808533 
	C1597.292114,303.329803 1615.858643,326.820953 1643.954468,341.795563 
	C1669.850708,355.597717 1697.716064,357.800873 1726.134277,351.345154 
	C1745.918091,346.850922 1763.069336,337.240814 1777.103149,322.390442 
	C1779.671387,319.672852 1782.194824,316.913177 1784.738892,314.172974 
	C1785.159546,314.451385 1785.580078,314.729767 1786.000732,315.008179 
	C1786.000732,321.616302 1786.018066,328.224487 1785.996216,334.832550 
	C1785.968994,343.015930 1790.704102,348.830963 1797.418945,351.435547 
	C1811.003540,356.704926 1828.134399,350.974060 1828.040771,331.319519 
	C1827.890747,299.821869 1828.141724,268.321960 1827.910767,236.825317 
	C1827.845459,227.925537 1827.239258,218.952957 1825.939575,210.152832 
	C1821.345459,179.049271 1806.244751,153.623123 1782.121094,133.848938 
	C1762.837158,118.041817 1740.119995,109.800339 1715.319824,108.138084 
	C1698.419189,107.005287 1681.611938,108.424431 1665.341431,113.832031 
	C1643.322876,121.150032 1624.772827,133.409912 1609.939575,151.424316 
	C1599.608398,163.971085 1591.620361,177.735870 1587.469604,193.390488 
	C1584.908081,203.051315 1583.228149,213.034698 1582.195923,222.981567 
	C1581.485107,229.830597 1582.563110,236.865250 1582.953857,244.733658 
M645.598633,353.000275 
	C659.041199,354.371918 668.409119,343.718597 668.180542,330.822083 
	C667.625427,299.503082 668.248474,268.164551 667.864075,236.840408 
	C667.730957,225.990128 666.872253,215.000961 664.878418,204.349731 
	C659.468628,175.449829 644.695129,151.620544 621.747375,133.581772 
	C590.375793,108.921158 554.320007,103.021622 515.882874,111.123344 
	C487.143890,117.180923 464.156616,132.636414 446.278229,156.043350 
	C430.783173,176.329910 423.738739,199.497437 422.128296,224.464020 
	C421.102051,240.374115 423.138458,256.141022 427.762421,271.475403 
	C435.080475,295.744354 448.279205,316.125153 468.347260,331.771820 
	C478.031219,339.322174 488.782684,345.190155 500.497559,348.883179 
	C518.997437,354.715210 537.888306,355.900055 557.143372,353.097595 
	C578.213440,350.030945 596.441101,341.218231 612.259155,327.194733 
	C616.744812,323.217987 620.950073,318.924896 626.001343,314.090210 
	C626.001343,321.417236 626.032471,327.849335 625.993530,334.281006 
	C625.943420,342.553741 634.352722,353.914978 645.598633,353.000275 
M1964.944824,312.023743 
	C1960.945679,312.015198 1956.934814,312.196899 1952.949951,311.953644 
	C1946.937500,311.586639 1941.280396,310.411194 1936.914062,305.495361 
	C1928.470093,295.988922 1926.171997,284.391907 1926.104492,272.415466 
	C1925.846069,226.591110 1926.000000,180.764450 1926.000000,134.938644 
	C1926.000000,98.278008 1925.963745,61.617298 1926.037354,24.956810 
	C1926.049072,19.092541 1924.153564,13.826372 1919.663086,10.528003 
	C1912.266357,5.095070 1903.796021,3.995815 1895.377197,8.358048 
	C1887.874512,12.245493 1884.955566,18.862667 1884.961914,27.212822 
	C1885.025146,108.866013 1885.028564,190.519287 1884.972046,272.172485 
	C1884.962524,285.859406 1886.850098,299.172546 1892.087769,311.854797 
	C1903.941650,340.557068 1930.253540,357.687195 1962.048340,351.975037 
	C1970.222168,350.506622 1978.494141,343.018219 1978.970093,336.554443 
	C1979.926147,323.570709 1976.738525,314.663391 1964.944824,312.023743 
M1159.468872,118.110268 
	C1158.312744,121.845917 1156.159546,125.578583 1156.148315,129.317657 
	C1155.945435,197.102112 1155.967285,264.887421 1156.099731,332.672241 
	C1156.106201,336.012451 1156.886597,339.716644 1158.466431,342.620300 
	C1163.369141,351.631195 1173.573730,355.226654 1184.634766,351.854828 
	C1191.483887,349.766968 1198.090454,343.371918 1198.067627,332.057861 
	C1197.932373,264.772675 1198.001709,197.487137 1197.999634,130.201721 
	C1197.999268,120.289597 1193.922852,113.344856 1185.460205,111.125351 
	C1174.256348,108.186928 1165.784058,109.572861 1159.468872,118.110268 
M1150.969238,30.721533 
	C1150.344238,34.763847 1148.754761,38.931255 1149.260132,42.826977 
	C1151.539551,60.402401 1164.056885,70.083893 1181.061646,68.043968 
	C1192.077026,66.722542 1199.160400,60.553139 1203.065308,50.602131 
	C1206.694946,41.352238 1205.810791,32.000084 1199.634277,24.375830 
	C1185.437378,6.851250 1161.511841,9.824855 1150.969238,30.721533 
z"/>
<path fill="#050505" opacity="1.000000" stroke="none" 
	d="
M850.745483,108.005600 
	C865.475952,109.910072 879.097656,113.903770 890.484192,122.957558 
	C897.891724,128.847382 904.388489,135.882614 911.528015,142.626511 
	C913.713745,140.266769 916.606873,136.723618 919.923462,133.635254 
	C934.305054,120.243645 951.152832,111.786896 970.688721,108.993256 
	C988.178772,106.492172 1005.547180,106.743279 1022.290771,113.021950 
	C1044.766235,121.450073 1060.120850,137.348953 1068.948486,159.499969 
	C1074.952271,174.565201 1076.991577,190.411667 1076.996094,206.550186 
	C1077.007690,248.376999 1077.007690,290.203827 1076.993530,332.030640 
	C1076.990479,341.035309 1072.251831,349.437286 1065.295898,351.731323 
	C1056.993652,354.469360 1046.426758,353.968781 1040.045410,346.607208 
	C1036.348389,342.342255 1035.016602,337.408051 1035.013550,331.993591 
	C1034.988770,288.333710 1035.145020,244.673111 1034.918213,201.014420 
	C1034.842651,186.474045 1030.781738,172.908813 1021.064331,161.718674 
	C1013.423340,152.919617 1003.238586,147.704590 991.907898,146.323135 
	C978.112183,144.641129 964.325378,145.804520 952.357666,154.182236 
	C939.146179,163.430573 931.045410,176.145264 928.090454,191.987045 
	C927.307739,196.183090 927.053467,200.530991 927.045898,204.810028 
	C926.971558,246.803360 927.047119,288.796967 926.963989,330.790253 
	C926.945862,339.954803 924.200623,348.025177 914.792358,351.560883 
	C900.446594,356.952087 885.153564,349.615173 885.072327,333.171448 
	C884.858215,289.845917 885.131409,246.518036 884.929565,203.192383 
	C884.857178,187.661957 881.359375,172.874420 870.399048,161.164871 
	C862.546631,152.775650 852.407959,147.420700 840.996826,146.223679 
	C828.935486,144.958481 816.893921,145.776459 805.777344,152.012634 
	C790.279419,160.706680 780.709900,173.640427 777.105896,190.926682 
	C776.236816,195.095154 776.053284,199.466492 776.045715,203.745392 
	C775.971130,246.238647 776.062256,288.732208 775.949890,331.225311 
	C775.925537,340.426880 772.858459,348.416199 763.398499,351.733307 
	C749.192749,356.714478 734.142029,349.668701 734.090027,333.238190 
	C733.875244,265.416107 733.991516,197.592941 734.009155,129.770172 
	C734.011902,119.322304 741.193054,111.156891 751.832947,110.107323 
	C762.661377,109.039154 772.468994,113.061630 775.019226,125.191010 
	C775.424255,127.117302 775.895935,129.029572 776.474548,131.548126 
	C779.394653,129.298157 782.133240,127.096710 784.964600,125.021889 
	C799.594055,114.301338 815.695251,107.806816 834.113159,107.983467 
	C839.503418,108.035164 844.894470,107.998268 850.745483,108.005600 
z"/>
<path fill="#050505" opacity="1.000000" stroke="none" 
	d="
M1405.699951,354.026428 
	C1372.376465,353.323181 1346.364624,338.476990 1324.000854,313.789093 
	C1324.000854,316.741455 1324.000854,318.504303 1324.000732,320.267151 
	C1324.000366,359.083099 1324.074585,397.899261 1323.943237,436.714783 
	C1323.913330,445.534821 1318.509521,453.757050 1309.066895,455.834076 
	C1297.833618,458.304993 1287.417358,453.625153 1283.804199,444.259949 
	C1282.704590,441.409912 1282.075684,438.186981 1282.071411,435.133698 
	C1281.976929,366.331329 1281.556152,297.524567 1282.208252,228.728241 
	C1282.487793,199.243774 1292.161621,172.587738 1311.634766,149.704498 
	C1329.605835,128.586334 1352.183838,115.422874 1379.063843,110.291359 
	C1407.305908,104.899788 1435.202026,107.316666 1461.213135,120.311646 
	C1483.586060,131.488922 1500.991211,148.246582 1513.229004,170.385651 
	C1525.664551,192.882385 1529.514282,217.092438 1527.831787,242.183289 
	C1526.050049,268.758698 1517.252808,292.928436 1499.916260,313.684143 
	C1481.707520,335.483826 1458.993042,349.257294 1430.672363,352.937012 
	C1422.592041,353.986877 1414.339355,353.709839 1405.699951,354.026428 
M1460.479370,296.015808 
	C1469.429810,287.013062 1476.482300,276.796387 1481.144653,264.898621 
	C1488.264282,246.730347 1488.886230,228.069122 1484.794434,209.341263 
	C1480.567017,189.992371 1470.393188,173.933945 1454.547363,161.898102 
	C1437.108887,148.652359 1417.519165,143.280121 1395.521118,145.874207 
	C1371.568726,148.698761 1352.798340,159.924423 1338.989258,179.303116 
	C1324.552368,199.562881 1320.383545,222.571808 1324.270386,246.730820 
	C1327.634277,267.638733 1336.823975,285.772034 1353.830566,299.392639 
	C1374.354126,315.829926 1397.674805,320.197784 1422.910645,315.433472 
	C1436.947754,312.783325 1449.123047,305.780212 1460.479370,296.015808 
z"/>
<path fill="#050505" opacity="1.000000" stroke="none" 
	d="
M1582.897705,244.275299 
	C1582.563110,236.865250 1581.485107,229.830597 1582.195923,222.981567 
	C1583.228149,213.034698 1584.908081,203.051315 1587.469604,193.390488 
	C1591.620361,177.735870 1599.608398,163.971085 1609.939575,151.424316 
	C1624.772827,133.409912 1643.322876,121.150032 1665.341431,113.832031 
	C1681.611938,108.424431 1698.419189,107.005287 1715.319824,108.138084 
	C1740.119995,109.800339 1762.837158,118.041817 1782.121094,133.848938 
	C1806.244751,153.623123 1821.345459,179.049271 1825.939575,210.152832 
	C1827.239258,218.952957 1827.845459,227.925537 1827.910767,236.825317 
	C1828.141724,268.321960 1827.890747,299.821869 1828.040771,331.319519 
	C1828.134399,350.974060 1811.003540,356.704926 1797.418945,351.435547 
	C1790.704102,348.830963 1785.968994,343.015930 1785.996216,334.832550 
	C1786.018066,328.224487 1786.000732,321.616302 1786.000732,315.008179 
	C1785.580078,314.729767 1785.159546,314.451385 1784.738892,314.172974 
	C1782.194824,316.913177 1779.671387,319.672852 1777.103149,322.390442 
	C1763.069336,337.240814 1745.918091,346.850922 1726.134277,351.345154 
	C1697.716064,357.800873 1669.850708,355.597717 1643.954468,341.795563 
	C1615.858643,326.820953 1597.292114,303.329803 1588.216675,272.808533 
	C1585.517700,263.731171 1584.656982,254.107178 1582.897705,244.275299 
M1704.509033,316.999451 
	C1710.448730,316.592743 1716.561768,316.950104 1722.298096,315.647583 
	C1747.618408,309.898224 1766.356445,295.221130 1777.901611,272.001678 
	C1787.913086,251.866776 1789.459229,230.597382 1784.395386,208.771896 
	C1780.049927,190.042831 1770.490479,174.245697 1755.531372,162.481125 
	C1738.135864,148.800217 1718.089355,143.178085 1695.682495,145.873932 
	C1667.788452,149.229965 1646.649170,163.085907 1633.601196,187.370758 
	C1618.541504,215.399445 1618.121460,244.698898 1632.803711,273.290192 
	C1647.476440,301.862671 1671.522949,316.065216 1704.509033,316.999451 
z"/>
<path fill="#050505" opacity="1.000000" stroke="none" 
	d="
M645.146729,353.000244 
	C634.352722,353.914978 625.943420,342.553741 625.993530,334.281006 
	C626.032471,327.849335 626.001343,321.417236 626.001343,314.090210 
	C620.950073,318.924896 616.744812,323.217987 612.259155,327.194733 
	C596.441101,341.218231 578.213440,350.030945 557.143372,353.097595 
	C537.888306,355.900055 518.997437,354.715210 500.497559,348.883179 
	C488.782684,345.190155 478.031219,339.322174 468.347260,331.771820 
	C448.279205,316.125153 435.080475,295.744354 427.762421,271.475403 
	C423.138458,256.141022 421.102051,240.374115 422.128296,224.464020 
	C423.738739,199.497437 430.783173,176.329910 446.278229,156.043350 
	C464.156616,132.636414 487.143890,117.180923 515.882874,111.123344 
	C554.320007,103.021622 590.375793,108.921158 621.747375,133.581772 
	C644.695129,151.620544 659.468628,175.449829 664.878418,204.349731 
	C666.872253,215.000961 667.730957,225.990128 667.864075,236.840408 
	C668.248474,268.164551 667.625427,299.503082 668.180542,330.822083 
	C668.409119,343.718597 659.041199,354.371918 645.146729,353.000244 
M489.516266,167.006012 
	C486.822540,169.727966 483.822357,172.211014 481.484314,175.210266 
	C464.976196,196.387207 460.130768,220.543442 463.988800,246.679062 
	C469.594177,284.651825 497.647400,312.448303 534.944946,316.696503 
	C563.468262,319.945312 588.378967,311.187347 607.319702,288.268982 
	C618.968750,274.173615 625.330872,257.976868 626.875732,240.026581 
	C628.481201,221.370865 625.356689,203.404236 615.946594,186.914017 
	C607.299744,171.761078 595.586487,159.869797 579.395752,152.656998 
	C565.359619,146.404037 550.952026,144.039993 535.564209,145.851608 
	C518.039978,147.914749 502.970703,154.700409 489.516266,167.006012 
z"/>
<path fill="#050505" opacity="1.000000" stroke="none" 
	d="
M1965.379883,312.055054 
	C1976.738525,314.663391 1979.926147,323.570709 1978.970093,336.554443 
	C1978.494141,343.018219 1970.222168,350.506622 1962.048340,351.975037 
	C1930.253540,357.687195 1903.941650,340.557068 1892.087769,311.854797 
	C1886.850098,299.172546 1884.962524,285.859406 1884.972046,272.172485 
	C1885.028564,190.519287 1885.025146,108.866013 1884.961914,27.212822 
	C1884.955566,18.862667 1887.874512,12.245493 1895.377197,8.358048 
	C1903.796021,3.995815 1912.266357,5.095070 1919.663086,10.528003 
	C1924.153564,13.826372 1926.049072,19.092541 1926.037354,24.956810 
	C1925.963745,61.617298 1926.000000,98.278008 1926.000000,134.938644 
	C1926.000000,180.764450 1925.846069,226.591110 1926.104492,272.415466 
	C1926.171997,284.391907 1928.470093,295.988922 1936.914062,305.495361 
	C1941.280396,310.411194 1946.937500,311.586639 1952.949951,311.953644 
	C1956.934814,312.196899 1960.945679,312.015198 1965.379883,312.055054 
z"/>
<path fill="#AFAFAF" opacity="1.000000" stroke="none" 
	d="
M314.970612,201.943115 
	C328.283508,206.776230 341.596436,211.609360 355.177246,216.539749 
	C350.817841,228.717575 346.704407,240.377747 342.471863,251.994507 
	C335.050049,272.364563 327.519165,292.694885 320.102509,313.066803 
	C314.270599,329.085754 308.562012,345.149597 302.743561,361.173462 
	C301.956451,363.341125 301.315002,365.492340 297.839386,364.141693 
	C285.516968,359.353180 273.073883,354.875305 260.036804,349.921661 
	C256.942993,349.025177 254.488907,348.486755 251.826584,347.656158 
	C247.153000,345.627228 242.764526,343.647461 238.205994,342.205231 
	C229.233017,339.366333 230.130310,340.508331 233.435532,331.338135 
	C246.097992,296.206665 259.049744,261.179504 271.867493,226.103928 
	C276.108887,214.497452 280.271942,202.862350 284.546570,191.030579 
	C292.599457,193.809570 300.229736,196.442703 308.032593,199.387970 
	C310.460327,200.447769 312.715485,201.195435 314.970612,201.943115 
M276.823822,320.089233 
	C281.577820,320.694458 285.948792,319.306793 287.669769,314.896606 
	C288.858765,311.849762 288.845337,307.648346 287.732086,304.551331 
	C286.117889,300.060669 280.655701,298.037811 276.224884,299.014648 
	C271.789062,299.992615 268.192078,303.975006 267.971680,308.152222 
	C267.639557,314.446167 269.820404,317.666107 276.823822,320.089233 
M310.097229,255.365265 
	C309.013062,249.330399 304.244873,246.101761 297.827881,247.057541 
	C293.202423,247.746490 288.308105,254.182098 289.015900,258.644562 
	C289.998932,264.842255 295.650208,268.820190 302.324707,268.012543 
	C307.521149,267.383759 311.077026,262.178680 310.097229,255.365265 
z"/>
<path fill="#050505" opacity="1.000000" stroke="none" 
	d="
M1159.715820,117.831497 
	C1165.784058,109.572861 1174.256348,108.186928 1185.460205,111.125351 
	C1193.922852,113.344856 1197.999268,120.289597 1197.999634,130.201721 
	C1198.001709,197.487137 1197.932373,264.772675 1198.067627,332.057861 
	C1198.090454,343.371918 1191.483887,349.766968 1184.634766,351.854828 
	C1173.573730,355.226654 1163.369141,351.631195 1158.466431,342.620300 
	C1156.886597,339.716644 1156.106201,336.012451 1156.099731,332.672241 
	C1155.967285,264.887421 1155.945435,197.102112 1156.148315,129.317657 
	C1156.159546,125.578583 1158.312744,121.845917 1159.715820,117.831497 
z"/>
<path fill="#050505" opacity="1.000000" stroke="none" 
	d="
M314.974670,201.545013 
	C312.715485,201.195435 310.460327,200.447769 308.076172,198.990967 
	C301.871918,172.900681 289.052216,151.170853 270.925140,132.755463 
	C258.479614,120.111977 243.828476,110.235909 227.411636,103.117432 
	C210.247437,95.674896 192.280243,91.564247 173.688751,91.204628 
	C164.034012,91.017868 154.218033,92.290619 144.682602,94.037704 
	C109.106483,100.555962 80.577408,119.086899 58.513504,147.307800 
	C41.878189,168.585236 32.676727,193.314514 30.227922,220.106125 
	C28.581070,238.123856 30.544893,256.056030 35.932629,273.573730 
	C42.828056,295.993500 54.412762,315.663635 70.880020,332.079559 
	C83.640007,344.799744 98.388603,355.015015 115.232750,362.236084 
	C132.186295,369.504059 149.775894,373.419189 167.999527,373.784027 
	C178.150330,373.987274 188.443237,372.580078 198.498993,370.876740 
	C218.106506,367.555359 235.927826,359.651520 252.034821,347.948334 
	C254.488907,348.486755 256.942993,349.025177 259.701630,349.792175 
	C240.048187,365.179565 217.703690,374.393341 192.862350,378.130646 
	C164.094116,382.458710 136.695908,378.485657 110.227921,366.690918 
	C95.601387,360.172974 82.630272,351.389618 70.879066,340.490997 
	C48.805752,320.019165 34.418091,295.201752 27.516371,265.998810 
	C23.636623,249.582626 23.205000,233.011642 24.856796,216.208008 
	C27.584108,188.463196 37.695332,163.689941 54.758438,141.997238 
	C76.203857,114.733200 103.898811,96.444000 138.047989,89.187630 
	C149.914154,86.666176 162.288651,84.909660 174.356094,85.275314 
	C207.367828,86.275597 237.396896,96.521675 263.265045,117.724411 
	C286.800842,137.015442 303.524628,160.852005 312.109161,190.188583 
	C313.169189,193.811066 314.027130,197.492676 314.974670,201.545013 
z"/>
<path fill="#050505" opacity="1.000000" stroke="none" 
	d="
M1151.030518,30.329285 
	C1161.511841,9.824855 1185.437378,6.851250 1199.634277,24.375830 
	C1205.810791,32.000084 1206.694946,41.352238 1203.065308,50.602131 
	C1199.160400,60.553139 1192.077026,66.722542 1181.061646,68.043968 
	C1164.056885,70.083893 1151.539551,60.402401 1149.260132,42.826977 
	C1148.754761,38.931255 1150.344238,34.763847 1151.030518,30.329285 
z"/>
<path fill="#4C6971" opacity="1.000000" stroke="none" 
	d="
M1460.226562,296.270447 
	C1449.123047,305.780212 1436.947754,312.783325 1422.910645,315.433472 
	C1397.674805,320.197784 1374.354126,315.829926 1353.830566,299.392639 
	C1336.823975,285.772034 1327.634277,267.638733 1324.270386,246.730820 
	C1320.383545,222.571808 1324.552368,199.562881 1338.989258,179.303116 
	C1352.798340,159.924423 1371.568726,148.698761 1395.521118,145.874207 
	C1417.519165,143.280121 1437.108887,148.652359 1454.547363,161.898102 
	C1470.393188,173.933945 1480.567017,189.992371 1484.794434,209.341263 
	C1488.886230,228.069122 1488.264282,246.730347 1481.144653,264.898621 
	C1476.482300,276.796387 1469.429810,287.013062 1460.226562,296.270447 
z"/>
<path fill="#4C6971" opacity="1.000000" stroke="none" 
	d="
M1704.017090,316.999420 
	C1671.522949,316.065216 1647.476440,301.862671 1632.803711,273.290192 
	C1618.121460,244.698898 1618.541504,215.399445 1633.601196,187.370758 
	C1646.649170,163.085907 1667.788452,149.229965 1695.682495,145.873932 
	C1718.089355,143.178085 1738.135864,148.800217 1755.531372,162.481125 
	C1770.490479,174.245697 1780.049927,190.042831 1784.395386,208.771896 
	C1789.459229,230.597382 1787.913086,251.866776 1777.901611,272.001678 
	C1766.356445,295.221130 1747.618408,309.898224 1722.298096,315.647583 
	C1716.561768,316.950104 1710.448730,316.592743 1704.017090,316.999420 
z"/>
<path fill="#4C6971" opacity="1.000000" stroke="none" 
	d="
M489.766968,166.753662 
	C502.970703,154.700409 518.039978,147.914749 535.564209,145.851608 
	C550.952026,144.039993 565.359619,146.404037 579.395752,152.656998 
	C595.586487,159.869797 607.299744,171.761078 615.946594,186.914017 
	C625.356689,203.404236 628.481201,221.370865 626.875732,240.026581 
	C625.330872,257.976868 618.968750,274.173615 607.319702,288.268982 
	C588.378967,311.187347 563.468262,319.945312 534.944946,316.696503 
	C497.647400,312.448303 469.594177,284.651825 463.988800,246.679062 
	C460.130768,220.543442 464.976196,196.387207 481.484314,175.210266 
	C483.822357,172.211014 486.822540,169.727966 489.766968,166.753662 
z"/>
<path fill="#4C6971" opacity="1.000000" stroke="none" 
	d="
M251.826584,347.656158 
	C235.927826,359.651520 218.106506,367.555359 198.498993,370.876740 
	C188.443237,372.580078 178.150330,373.987274 167.999527,373.784027 
	C149.775894,373.419189 132.186295,369.504059 115.232750,362.236084 
	C98.388603,355.015015 83.640007,344.799744 70.880020,332.079559 
	C54.412762,315.663635 42.828056,295.993500 35.932629,273.573730 
	C30.544893,256.056030 28.581070,238.123856 30.227922,220.106125 
	C32.676727,193.314514 41.878189,168.585236 58.513504,147.307800 
	C80.577408,119.086899 109.106483,100.555962 144.682602,94.037704 
	C154.218033,92.290619 164.034012,91.017868 173.688751,91.204628 
	C192.280243,91.564247 210.247437,95.674896 227.411636,103.117432 
	C243.828476,110.235909 258.479614,120.111977 270.925140,132.755463 
	C289.052216,151.170853 301.871918,172.900681 307.903564,198.678833 
	C300.229736,196.442703 292.599457,193.809570 284.546570,191.030579 
	C280.271942,202.862350 276.108887,214.497452 271.867493,226.103928 
	C259.049744,261.179504 246.097992,296.206665 233.435532,331.338135 
	C230.130310,340.508331 229.233017,339.366333 238.205994,342.205231 
	C242.764526,343.647461 247.153000,345.627228 251.826584,347.656158 
M116.868080,271.245117 
	C112.103516,282.472656 107.262703,293.668732 102.609459,304.942200 
	C100.561150,309.904663 102.915230,316.474884 106.906731,317.837585 
	C112.624313,319.789551 117.774757,317.179047 120.039230,311.409393 
	C123.107780,303.591095 126.142776,295.746429 129.656174,288.127045 
	C130.362946,286.594269 133.135681,285.153503 134.971420,285.134033 
	C154.956589,284.921875 174.945160,285.058655 194.931870,284.940430 
	C197.957657,284.922516 199.123230,286.037964 200.163498,288.826050 
	C203.271866,297.156952 206.679413,305.388000 210.298492,313.511749 
	C212.171982,317.717163 217.889862,319.481628 222.285751,317.789001 
	C226.241882,316.265656 228.727417,310.604889 227.080536,306.177582 
	C225.071930,300.777863 222.819351,295.466400 220.583099,290.154297 
	C212.080780,269.957520 203.524506,249.783478 195.023087,229.586334 
	C187.738068,212.278976 180.543961,194.933228 173.209793,177.646820 
	C171.475510,173.559174 168.165985,171.791519 163.655121,171.974731 
	C157.679031,172.217453 156.238464,177.019089 154.486755,181.159393 
	C141.904984,210.897324 129.477600,240.700592 116.868080,271.245117 
z"/>
<path fill="#080808" opacity="1.000000" stroke="none" 
	d="
M276.409851,320.044373 
	C269.820404,317.666107 267.639557,314.446167 267.971680,308.152222 
	C268.192078,303.975006 271.789062,299.992615 276.224884,299.014648 
	C280.655701,298.037811 286.117889,300.060669 287.732086,304.551331 
	C288.845337,307.648346 288.858765,311.849762 287.669769,314.896606 
	C285.948792,319.306793 281.577820,320.694458 276.409851,320.044373 
z"/>
<path fill="#070707" opacity="1.000000" stroke="none" 
	d="
M310.295319,255.710236 
	C311.077026,262.178680 307.521149,267.383759 302.324707,268.012543 
	C295.650208,268.820190 289.998932,264.842255 289.015900,258.644562 
	C288.308105,254.182098 293.202423,247.746490 297.827881,247.057541 
	C304.244873,246.101761 309.013062,249.330399 310.295319,255.710236 
z"/>
<path fill="#050505" opacity="1.000000" stroke="none" 
	d="
M116.934647,270.864136 
	C129.477600,240.700592 141.904984,210.897324 154.486755,181.159393 
	C156.238464,177.019089 157.679031,172.217453 163.655121,171.974731 
	C168.165985,171.791519 171.475510,173.559174 173.209793,177.646820 
	C180.543961,194.933228 187.738068,212.278976 195.023087,229.586334 
	C203.524506,249.783478 212.080780,269.957520 220.583099,290.154297 
	C222.819351,295.466400 225.071930,300.777863 227.080536,306.177582 
	C228.727417,310.604889 226.241882,316.265656 222.285751,317.789001 
	C217.889862,319.481628 212.171982,317.717163 210.298492,313.511749 
	C206.679413,305.388000 203.271866,297.156952 200.163498,288.826050 
	C199.123230,286.037964 197.957657,284.922516 194.931870,284.940430 
	C174.945160,285.058655 154.956589,284.921875 134.971420,285.134033 
	C133.135681,285.153503 130.362946,286.594269 129.656174,288.127045 
	C126.142776,295.746429 123.107780,303.591095 120.039230,311.409393 
	C117.774757,317.179047 112.624313,319.789551 106.906731,317.837585 
	C102.915230,316.474884 100.561150,309.904663 102.609459,304.942200 
	C107.262703,293.668732 112.103516,282.472656 116.934647,270.864136 
M175.469070,228.941147 
	C172.065598,220.399261 168.662109,211.857376 164.798538,202.160736 
	C155.230408,225.556717 146.264740,247.479568 137.164627,269.731140 
	C156.009674,269.731140 173.757812,269.731140 192.270203,269.731140 
	C186.671768,256.025909 181.274429,242.812927 175.469070,228.941147 
z"/>
<path fill="#4C6971" opacity="1.000000" stroke="none" 
	d="
M175.673065,229.270538 
	C181.274429,242.812927 186.671768,256.025909 192.270203,269.731140 
	C173.757812,269.731140 156.009674,269.731140 137.164627,269.731140 
	C146.264740,247.479568 155.230408,225.556717 164.798538,202.160736 
	C168.662109,211.857376 172.065598,220.399261 175.673065,229.270538 
z"/>
</svg>